<?xml version="1.0" encoding="utf-8"?>
<!-- Generator: Adobe Illustrator 27.5.0, SVG Export Plug-In . SVG Version: 6.00 Build 0)  -->
<svg version="1.1" xmlns="http://www.w3.org/2000/svg" xmlns:xlink="http://www.w3.org/1999/xlink" x="0px" y="0px"
	 viewBox="0 0 750 500" style="enable-background:new 0 0 750 500;" xml:space="preserve">
<g id="BACKGROUND">
	<rect style="fill:#FFFFFF;" width="750" height="500"/>
</g>
<g id="OBJECTS">
	<path style="opacity:0.35;fill:#A2D4F9;" d="M56.688,350.015l35.523,45.616c12.195,15.66,30.934,24.818,50.783,24.818h440.807
		c16.554,0,32.471-6.378,44.445-17.808l7.588-7.244c42.194-40.28,50.435-104.596,19.761-154.213l0,0
		c-7.448-12.047-10.714-26.215-9.293-40.307l0,0c5.309-52.623-29.667-100.869-81.331-112.191L466.559,67.12
		c-75.811-16.613-155.092,0.333-217.542,46.412c-11.403,8.414-19.518,14.044-20.772,14.009c-2.528-0.069-40.471,5.944-76.858,11.822
		c-39.233,6.337-68.289,39.871-68.975,79.606v0c-0.295,17.075-7.363,33.332-19.648,45.194l0,0
		C39.09,287.02,36.47,324.052,56.688,350.015z"/>
	<g>
		<path style="fill:#FFFFFF;" d="M669.085,167.214c-2.167-5.265-6.665-9.324-12.218-10.872
			c-0.508-12.631-10.904-22.717-23.66-22.717c-11.221,0-20.612,7.805-23.058,18.281c-0.704-0.081-1.419-0.127-2.145-0.127
			c-7.452,0-13.88,4.373-16.864,10.692c-4.048-3.228-9.172-5.162-14.752-5.162c-7.939,0-14.96,3.91-19.258,9.905H669.085z"/>
		<path style="fill:#FFFFFF;" d="M145.621,228.004c-1.455-3.535-4.475-6.261-8.205-7.301c-0.341-8.482-7.322-15.255-15.888-15.255
			c-7.535,0-13.841,5.242-15.484,12.276c-0.473-0.054-0.953-0.085-1.44-0.085c-5.004,0-9.32,2.937-11.324,7.18
			c-2.718-2.168-6.16-3.466-9.906-3.466c-5.331,0-10.046,2.626-12.932,6.652H145.621z"/>
		<path style="fill:#FFFFFF;" d="M240.686,116.517c1.055-2.563,3.245-4.54,5.949-5.294c0.247-6.15,5.309-11.061,11.52-11.061
			c5.463,0,10.036,3.8,11.227,8.901c0.343-0.039,0.691-0.062,1.044-0.062c3.628,0,6.758,2.129,8.211,5.206
			c1.971-1.572,4.466-2.513,7.183-2.513c3.865,0,7.284,1.904,9.376,4.823H240.686z"/>
	</g>
	<g>
		<path style="fill:#EA5854;" d="M237.243,155.341v-9.844c0-2.021-1.638-3.658-3.658-3.658h-9.372
			c-1.312-7.195-4.253-13.814-8.433-19.477l6.888-6.888c1.429-1.429,1.429-3.745,0-5.174l-6.961-6.961
			c-1.429-1.429-3.745-1.429-5.174,0l-7.256,7.256c-5.651-3.641-12.135-6.117-19.11-7.073v-11.1c0-2.021-1.638-3.658-3.658-3.658
			h-9.844c-2.02,0-3.658,1.638-3.658,3.658v11.847c-6.398,1.459-12.307,4.229-17.43,7.992l-8.935-8.926
			c-1.429-1.427-3.744-1.427-5.173,0.001l-6.963,6.963c-1.429,1.429-1.429,3.745,0,5.174l9.303,9.303
			c-3.285,5.099-5.614,10.873-6.754,17.063H117.59c-2.021,0-3.658,1.638-3.658,3.658v9.844c0,2.021,1.638,3.658,3.658,3.658h13.465
			c1.14,6.19,3.469,11.951,6.754,17.05l-9.303,9.303c-1.429,1.429-1.429,3.745,0,5.174l6.963,6.963
			c1.428,1.428,3.743,1.429,5.173,0.001l8.935-8.926c5.124,3.775,11.032,6.546,17.43,8.004v11.847c0,2.021,1.638,3.658,3.658,3.658
			h9.844c2.021,0,3.658-1.638,3.658-3.658v-11.1c6.975-0.956,13.459-3.444,19.11-7.085l7.256,7.256c1.429,1.429,3.745,1.429,5.174,0
			l6.961-6.961c1.429-1.429,1.429-3.745,0-5.174l-6.888-6.888c4.18-5.663,7.11-12.282,8.433-19.465h9.372
			C235.605,158.999,237.243,157.361,237.243,155.341z M198.978,164.055c-2.385,3.732-5.734,6.8-9.681,8.839
			c-2.077,1.095-4.321,1.89-6.678,2.357c-1.609,0.327-3.283,0.496-4.986,0.496c-2.834,0-5.565-0.468-8.11-1.337
			c-1.964-0.655-3.826-1.553-5.537-2.657c-3.732-2.376-6.8-5.715-8.849-9.672c-0.842-1.609-1.506-3.321-1.983-5.117
			c-0.561-2.086-0.861-4.284-0.861-6.548c0-2.264,0.299-4.462,0.861-6.548c0.477-1.796,1.141-3.508,1.992-5.126
			c2.048-3.947,5.107-7.287,8.839-9.672c1.712-1.104,3.573-2.002,5.537-2.656c2.544-0.87,5.275-1.338,8.11-1.338
			c1.702,0,3.377,0.168,4.986,0.496c2.357,0.468,4.602,1.263,6.678,2.357c3.947,2.039,7.286,5.107,9.681,8.839
			c1.384,2.161,2.451,4.555,3.124,7.1c0.561,2.086,0.86,4.284,0.86,6.548c0,2.264-0.299,4.462-0.86,6.548
			C201.429,159.509,200.363,161.895,198.978,164.055z"/>
		<path style="fill:#F97068;" d="M233.585,141.839h-9.371c-1.312-7.195-4.253-13.814-8.433-19.477l6.888-6.888
			c1.429-1.429,1.429-3.745,0-5.174l-6.961-6.961c-1.429-1.429-3.745-1.429-5.174,0l-7.256,7.256
			c-5.651-3.641-12.135-6.117-19.11-7.073v-11.1c0-2.021-1.638-3.659-3.658-3.659h-9.844c-2.02,0-3.658,1.638-3.658,3.659v11.847
			c-6.398,1.459-12.307,4.229-17.43,7.992l-8.935-8.926c-1.429-1.427-3.744-1.427-5.173,0.001l-6.963,6.963
			c-1.429,1.429-1.429,3.745,0,5.174l9.303,9.303c-3.285,5.099-5.614,10.873-6.754,17.063h-1.251
			c6.878,9.563,16.048,17.363,26.722,22.578c-0.5-0.753-0.971-1.527-1.389-2.335c-0.842-1.609-1.506-3.32-1.983-5.116
			c-0.561-2.086-0.861-4.284-0.861-6.548c0-2.263,0.299-4.462,0.861-6.548c0.477-1.796,1.141-3.508,1.992-5.126
			c2.048-3.947,5.107-7.286,8.839-9.672c1.712-1.104,3.573-2.002,5.537-2.656c2.544-0.87,5.275-1.338,8.11-1.338
			c1.702,0,3.377,0.168,4.986,0.496c2.357,0.468,4.602,1.263,6.678,2.357c3.947,2.039,7.286,5.107,9.681,8.839
			c1.384,2.161,2.451,4.555,3.124,7.1c0.561,2.086,0.86,4.284,0.86,6.548c0,2.264-0.299,4.462-0.86,6.548
			c-0.674,2.544-1.74,4.929-3.124,7.09c-1.91,2.988-4.444,5.539-7.402,7.489c11.599-0.595,22.456-3.971,31.948-9.449
			c0.26-1.021,0.496-2.05,0.689-3.096h4.217c3.13-2.162,6.072-4.571,8.813-7.192v-6.31
			C237.243,143.477,235.605,141.839,233.585,141.839z"/>
	</g>
	<g>
		<g>
			<rect x="314.491" y="386.932" style="fill:#0058C6;" width="80.444" height="52.513"/>
			<rect x="314.491" y="386.932" style="fill:#0E35AF;" width="80.444" height="23.306"/>
			<path style="fill:#0058C6;" d="M547.265,368.943H162.162V169.689c0-10.642,8.627-19.27,19.27-19.27h346.563
				c10.642,0,19.27,8.627,19.27,19.27V368.943z"/>
			<rect x="175.588" y="173.145" style="fill:#7DB6F4;" width="358.252" height="185.569"/>
			<path style="fill:#57AFF7;" d="M547.265,358.715H162.162v19.451c0,10.642,8.627,19.27,19.27,19.27h346.563
				c10.642,0,19.27-8.627,19.27-19.27V358.715z"/>
			<circle style="fill:#0058C6;" cx="354.714" cy="379.645" r="7.287"/>
			<path style="fill:#57AFF7;" d="M499.801,448.942H209.626c-2.673,0-4.84-2.167-4.84-4.84l0,0c0-7.818,6.338-14.155,14.155-14.155
				h271.544c7.818,0,14.155,6.337,14.155,14.155l0,0C504.641,446.775,502.474,448.942,499.801,448.942z"/>
			<g>
				<g>
					<path style="fill:#AFD9FF;" d="M515.946,220.897h-75.035c-1.211,0-2.192-0.981-2.192-2.192v-15.481
						c0-1.21,0.981-2.192,2.192-2.192h75.035c1.211,0,2.192,0.981,2.192,2.192v15.481
						C518.138,219.915,517.156,220.897,515.946,220.897z"/>
					<g>
						<polygon style="fill:#FF777A;" points="449.908,214.251 446.868,215.643 447.252,212.322 444.99,209.86 448.267,209.199 
							449.908,206.287 451.55,209.199 454.827,209.86 452.564,212.322 452.948,215.643 						"/>
						<polygon style="fill:#FF777A;" points="464.168,214.251 461.128,215.643 461.512,212.322 459.25,209.86 462.527,209.199 
							464.168,206.287 465.81,209.199 469.087,209.86 466.824,212.322 467.208,215.643 						"/>
						<polygon style="fill:#FF777A;" points="478.429,214.251 475.389,215.643 475.772,212.322 473.51,209.86 476.787,209.199 
							478.429,206.287 480.07,209.199 483.347,209.86 481.085,212.322 481.468,215.643 						"/>
						<polygon style="fill:#FF777A;" points="492.689,214.251 489.649,215.643 490.033,212.322 487.77,209.86 491.047,209.199 
							492.689,206.287 494.33,209.199 497.607,209.86 495.345,212.322 495.729,215.643 						"/>
						<polygon style="fill:#F7F7F7;" points="506.949,214.251 503.909,215.643 504.293,212.322 502.03,209.86 505.307,209.199 
							506.949,206.287 508.59,209.199 511.867,209.86 509.605,212.322 509.989,215.643 						"/>
					</g>
				</g>
				<g>
					<path style="fill:#AFD9FF;" d="M275.672,217.093h-79.999c-2.421,0-4.384-1.963-4.384-4.384v-18.84
						c0-2.421,1.963-4.384,4.384-4.384h79.999c2.421,0,4.384,1.963,4.384,4.384v18.84
						C280.056,215.13,278.093,217.093,275.672,217.093z"/>
					<g>
						<g>
							
								<ellipse transform="matrix(0.3845 -0.9231 0.9231 0.3845 -60.8303 315.3461)" style="fill:#FF777A;" cx="206.061" cy="203.289" rx="7.74" ry="7.74"/>
							<path style="fill:#F7F7F7;" d="M200.865,209.014c1.374,1.248,3.193,2.015,5.196,2.015c2.003,0,3.822-0.767,5.196-2.015
								c-0.161-2.015-1.454-3.706-3.253-4.429c0.771-0.588,1.276-1.507,1.276-2.551c0-1.778-1.441-3.219-3.219-3.219
								s-3.219,1.441-3.219,3.219c0,1.044,0.505,1.963,1.276,2.551C202.319,205.307,201.026,206.998,200.865,209.014z"/>
						</g>
						<g>
							<rect x="219.417" y="199.25" style="fill:#DCF1FF;" width="41.253" height="1.477"/>
							<rect x="219.417" y="202.551" style="fill:#DCF1FF;" width="53.607" height="1.477"/>
							<rect x="219.417" y="205.852" style="fill:#DCF1FF;" width="53.607" height="1.477"/>
						</g>
					</g>
				</g>
				<g>
					<path style="fill:#AFD9FF;" d="M239.722,240.666h-46.241c-1.21,0-2.192-0.981-2.192-2.192v-8.279
						c0-1.21,0.981-2.192,2.192-2.192h46.241c1.21,0,2.192,0.981,2.192,2.192v8.279
						C241.914,239.685,240.932,240.666,239.722,240.666z"/>
					<path style="fill:#AFD9FF;" d="M239.722,258.557h-46.241c-1.21,0-2.192-0.981-2.192-2.192v-8.279
						c0-1.21,0.981-2.192,2.192-2.192h46.241c1.21,0,2.192,0.981,2.192,2.192v8.279
						C241.914,257.576,240.932,258.557,239.722,258.557z"/>
					<path style="fill:#DCF1FF;" d="M239.722,276.448h-46.241c-1.21,0-2.192-0.981-2.192-2.192v-8.279
						c0-1.211,0.981-2.192,2.192-2.192h46.241c1.21,0,2.192,0.981,2.192,2.192v8.279
						C241.914,275.467,240.932,276.448,239.722,276.448z"/>
					<path style="fill:#FF777A;" d="M298.044,258.557h-46.241c-1.21,0-2.192-0.981-2.192-2.192v-8.279
						c0-1.21,0.981-2.192,2.192-2.192h46.241c1.21,0,2.192,0.981,2.192,2.192v8.279
						C300.235,257.576,299.254,258.557,298.044,258.557z"/>
					<path style="fill:#AFD9FF;" d="M298.044,276.448h-46.241c-1.21,0-2.192-0.981-2.192-2.192v-8.279
						c0-1.211,0.981-2.192,2.192-2.192h46.241c1.21,0,2.192,0.981,2.192,2.192v8.279
						C300.235,275.467,299.254,276.448,298.044,276.448z"/>
				</g>
				<g>
					<path style="fill:#FF777A;" d="M515.946,264.888h-46.241c-1.211,0-2.192-0.981-2.192-2.192v-8.279
						c0-1.21,0.981-2.192,2.192-2.192h46.241c1.211,0,2.192,0.981,2.192,2.192v8.279
						C518.138,263.907,517.156,264.888,515.946,264.888z"/>
					<path style="fill:#AFD9FF;" d="M515.946,282.779h-46.241c-1.211,0-2.192-0.981-2.192-2.192v-8.279
						c0-1.21,0.981-2.192,2.192-2.192h46.241c1.211,0,2.192,0.981,2.192,2.192v8.279
						C518.138,281.798,517.156,282.779,515.946,282.779z"/>
					<path style="fill:#DCF1FF;" d="M515.946,300.67h-46.241c-1.211,0-2.192-0.981-2.192-2.192V290.2
						c0-1.21,0.981-2.192,2.192-2.192h46.241c1.211,0,2.192,0.981,2.192,2.192v8.279C518.138,299.689,517.156,300.67,515.946,300.67
						z"/>
				</g>
			</g>
		</g>
		<g>
			<g>
				<path style="fill:#252384;" d="M293.99,185.578c-2.285,57.728-29.13,63.573,0,105.216
					c29.13,41.644,129.463,26.889,131.168-4.638c1.706-31.527-19.481-50.522-5.6-89.974S293.99,185.578,293.99,185.578z"/>
				<path style="fill:#0C0835;" d="M301.464,200.944c-3.384,26.238-12.386,52.114-7.763,66.336c0,0,0.506-16.001,3.502-19.856
					c0,0-2.991,22.459,6.171,40.676c9.163,18.218,108.058,14.748,108.058,14.748s2.024-19.953,0-34.411
					c-2.024-14.458-5.879-20.076-6.988-27.822c0,0,6.097,12.592,8.47,17.412c2.373,4.819,2.693,11.884,2.693,11.884
					s0.644-12.848-4.368-22.679c-5.012-9.832-2.006-36.942-0.521-47.484c1.485-10.542-69.758-23.044-77.512-18.817
					C325.454,185.156,301.464,200.944,301.464,200.944z"/>
			</g>
			<g>
				<path style="fill:#FFFFFF;" d="M324.436,272.21c-34.375,11.644-59.032,16.027-66.155,38.493
					c-7.123,22.466-17.109,48.011-17.109,48.011h232.45c0,0-11.507-52.943-24.109-61.71c-12.603-8.767-61.917-23.457-76.986-25.975
					C357.459,268.512,324.436,272.21,324.436,272.21z"/>
				<path style="fill:#DCEDFF;" d="M419.188,323.099c0,0,0.877,21.077-2.203,35.616h7.88L419.188,323.099z"/>
				<path style="fill:#DCEDFF;" d="M296.878,331.404c0,0-0.673,16.162,1.689,27.31h-6.043L296.878,331.404z"/>
				<path style="fill:#DCEDFF;" d="M269.24,304.286c3.012-7.941,12.734-17.263,12.744-17.273
					c-11.797,5.424-20.055,12.184-23.703,23.69c-7.123,22.466-17.109,48.012-17.109,48.012h18.753
					C259.103,334.788,266.226,312.231,269.24,304.286z"/>
				<path style="fill:#0058C6;" d="M366.5,315.909c0,0-16.712-1.096-26.849-8.767c-10.137-7.671-8.767-15.342-8.767-15.342
					s-7.397,0.548-10.137,0c-2.74-0.548,1.194-29.094,17.172-29.616c15.978-0.521,49.448,6.107,53.557,6.328
					c4.11,0.222,17.666,12.372,14.245,27.766c-0.548,2.466-7.167-4.478-10.181-0.916C392.527,298.922,390.061,313.991,366.5,315.909
					z"/>
				<path style="fill:#0E35AF;" d="M360.956,311.315c0,0-20.072-13.467-29.113-39.906c-1.43-4.183,0.986-6.521,5.424-7.233
					L360.956,311.315z"/>
				<path style="fill:#0E35AF;" d="M367.348,315.37c11.754-7.522,22.576-26.015,25.864-32.179
					c3.288-6.164,3.419-11.967-6.647-13.038C376.499,269.081,367.348,315.37,367.348,315.37z"/>
				<path style="fill:#FFC5C7;" d="M388.064,232.647c-3.028,24.441-4.762,37.509,3.412,47.646c0,0-14.566,29.589-24.976,35.616
					c0,0-24.931-17.808-31.781-46.301c0,0,4.109-6.301,4.658-15.616c0.548-9.315-0.822-25.479-0.822-25.479L388.064,232.647z"/>
				<path style="fill:#FE8A8B;" d="M381.688,297.794c-15.203,18.409-30.87,2.871-36.691-5.022
					c9.614,14.64,21.503,23.136,21.503,23.136C371.292,313.134,376.961,305.369,381.688,297.794z"/>
				<path style="fill:#FE8A8B;" d="M339.376,253.991c-0.469,7.974-3.541,13.725-4.418,15.22
					c11.278-2.002,35.474-6.641,50.642-12.047c0.239-6.7,1.246-14.687,2.464-24.517l-30.203-2.522l-19.278-1.253
					C338.779,231.284,339.877,245.488,339.376,253.991z"/>
			</g>
			<g>
				<g>
					<path style="fill:#FFA6A4;" d="M427.444,170.372c0.969-15.414,1.223-29.439-10.806-47.415
						c-12.029-17.976-9.487,29.461-9.29,30.004c0.197,0.543,10.663,20.545,10.663,20.545L427.444,170.372z"/>
					<path style="fill:#F97068;" d="M420.654,194.769c-1.527,8.865-0.492,16.184,3.757,16.916c4.25,0.732,8.933-5.86,10.46-14.725
						c1.527-8.864-0.679-16.644-4.929-17.376C425.693,178.852,422.181,185.904,420.654,194.769z"/>
					<path style="fill:#CB3034;" d="M428.962,200.457l-2.676,1.089l-2.623,7.266c0,0-0.444,0.901-0.991,2.06
						c0.507,0.412,1.08,0.701,1.74,0.815c3.766,0.649,7.868-4.459,9.817-11.798C430.848,201.643,428.962,200.457,428.962,200.457z"
						/>
					<path style="fill:#F97068;" d="M416.721,167.491c3.297-0.611,12.649,1.868,13.711,6.698
						c2.414,10.984-1.596,36.465-8.955,42.755c-2.682,2.292-10.148,1.826-12.798,1.012c-6.726-2.065-6.748-12.818-4.29-27.083
						C406.847,176.608,412.145,168.339,416.721,167.491z"/>
					<path style="fill:#CB3034;" d="M428.962,200.457c-3.422,2.468-5.199,0-5.199,0c-2.32,4.934-6.584,4.929-11.967,5.659
						l-3.018-1.597c0,0-2.949,2.17-5.715,4.131c0.497,4.91,2.176,8.25,5.616,9.307c2.65,0.813,10.117,1.28,12.798-1.012
						C424.701,214.188,427.282,207.748,428.962,200.457z"/>
					<path style="fill:#FFA6A4;" d="M430.431,174.19c-1.062-4.831-10.413-7.309-13.711-6.698c-0.273,0.051-0.548,0.131-0.826,0.234
						c6.043-0.447,9.207,3.783,9.901,8.627c0.694,4.846,0.002,26.772-7.114,36.444c-0.908,1.234-2.478,4.837-7.765,5.603
						c3.357,0.441,8.444,0.352,10.559-1.456C428.835,210.654,432.845,185.174,430.431,174.19z"/>
					<path style="fill:#F97068;" d="M428.962,200.457c-3.422,2.468-5.199,0-5.199,0c-0.001,0.002-0.002,0.003-0.002,0.004
						c-1.129,4.735-2.761,9.186-5.078,12.336c-0.908,1.234-2.478,4.837-7.765,5.603c3.357,0.441,8.444,0.352,10.559-1.456
						C424.701,214.188,427.282,207.748,428.962,200.457z"/>
					<path style="fill:#CB3034;" d="M417.221,192.876c-1.333,7.739-4.094,13.723-6.167,13.366c-2.072-0.357-2.671-6.92-1.338-14.659
						c1.334-7.739,4.094-13.723,6.167-13.366C417.956,178.574,418.555,185.137,417.221,192.876z"/>
				</g>
				<path style="fill:#FFC5C7;" d="M313.659,217.483c0.093,0.225,0.188,0.45,0.286,0.675c3.373,7.769,9.449,15.859,15.396,21.918
					c8.79,8.955,20.718,16.741,33.364,18.436c13.592,1.822,26.062-5.739,35.153-15.437c4.177-4.457,7.443-9.964,8.791-15.957
					c1.434-6.374,0.656-13.205,1.697-19.718c0.56-3.501,1.966-6.8,3.15-10.142c3.629-10.247,5.447-21.722,4.199-32.746
					c-0.519-4.582-1.267-11.151-3.747-15.124c-2.851-4.568-9.447-8.162-13.898-10.948c-14.266-8.928-33.18-12.196-49.392-7.149
					c-16.573,5.159-30.086,18.445-37.068,34.155c-3.323,7.478-5.255,14.838-3.641,22.898
					C309.961,198.386,309.657,207.806,313.659,217.483z"/>
				<path style="fill:#FE8A8B;" d="M310.336,179.725c0,0,25.753,7.077,48.493,0c22.74-7.077,30.456-21.324,32.351-28.721
					c0,0,18.574,14.563,22.289,36.049c0,0,1.277-38.148-10.577-42.898c-11.853-4.749-36.667-10.959-39.406-8.493
					c-2.74,2.466-48.767,28.767-48.767,28.767L310.336,179.725z"/>
				<g>
					<path style="fill:#0C0835;" d="M336.547,180.261c1.873-0.916,3.811-1.7,5.807-2.39c2.003-0.665,4.084-1.166,6.223-1.424
						c2.123-0.263,4.355-0.567,6.486-0.017c3.09,0.842,4.323,1.461,5.824,2.886l-0.103,0.282c-1.121,0.07-2.154,0.006-3.176-0.039
						l-2.996-0.163c-1.957-0.075-3.88-0.551-5.885-0.554c-1.99-0.002-4.004,0.179-6.02,0.487c-2.025,0.281-4.034,0.752-6.06,1.215
						L336.547,180.261z"/>
					<path style="fill:#0C0835;" d="M403.577,180.903c-1.922-0.822-3.912-1.381-5.937-1.662c-2.018-0.304-4.054-0.39-6.07-0.304
						c-2.028,0.093-3.978,0.641-5.977,0.76c-2.013,0.141-4.025,0.34-6.267,0.266l-0.103-0.282c1.699-1.493,3.749-2.376,5.863-2.942
						c2.129-0.588,4.371-0.375,6.53-0.203c2.17,0.167,4.318,0.572,6.373,1.245c2.043,0.698,4.021,1.603,5.738,2.861L403.577,180.903
						z"/>
					<ellipse style="fill:#0C0835;" cx="349.072" cy="191.789" rx="1.957" ry="4"/>
					<ellipse style="fill:#0C0835;" cx="390.243" cy="191.981" rx="1.88" ry="4"/>
					<path style="fill:#FE8A8B;" d="M375.632,211.028c-0.574,1.491-1.548,2.863-2.904,3.708c-1.356,0.845-3.115,1.106-4.587,0.484
						c-2.378-1.005-3.033-3.78,0.203-3.153c1.262,0.245,2.465,0.395,3.752,0.215C372.757,212.19,375.346,211.769,375.632,211.028z"
						/>
					<g>
						<path style="fill:#C31F2A;" d="M352.062,221.901c8.146,1.056,27.777,1.532,34.188,1.215
							c-2.624,8.701-9.077,17.227-17.921,16.913C359.255,239.707,353.981,230.972,352.062,221.901z"/>
						<path style="fill:#FB8384;" d="M379.04,235.513c-6.828-5.75-11.756-0.831-11.756-0.831c-1.555-1.056-5.861-2.842-9.641-0.287
							c2.09,2.554,4.713,4.441,7.886,5.226c0.989,0.134,2.017,0.27,3.048,0.4C372.621,240.089,376.152,238.305,379.04,235.513z"/>
						<path style="fill:#FFFFFF;" d="M354.181,222.137c0.141,1.46,0.424,2.905,0.862,4.295c8.825,3.241,18.69,3.752,27.761,1.433
							c0.33-1.518,0.577-3.09,0.756-4.672C376.203,223.305,362.087,222.915,354.181,222.137z"/>
					</g>
				</g>
				<g>
					<path style="fill:#FFA6A4;" d="M404.79,238.831c-0.66,0.053-1.309,0.038-1.942-0.048c-6.223-0.843-9.557-1.308-9.557-1.308
						l0.381-2.729c0.001,0,3.331,0.465,9.546,1.306c5.73,0.783,13.079-8.324,15.018-19.029c0.133-0.737,0.804-1.249,1.546-1.147l0,0
						c0.765,0.105,1.311,0.821,1.176,1.581C418.943,228.756,411.53,238.293,404.79,238.831z"/>
					<path style="fill:#F97068;" d="M420.632,216.339c0.005,0.097,0,0.196-0.018,0.297c-2.014,11.298-9.427,20.835-16.167,21.373
						c-0.66,0.053-1.309,0.038-1.942-0.048c-4.912-0.666-8.015-1.094-9.108-1.246l-0.106,0.76c0,0,3.334,0.465,9.557,1.308
						c0.633,0.086,1.282,0.1,1.942,0.048c6.741-0.538,14.154-10.075,16.167-21.373C421.032,217.038,420.895,216.636,420.632,216.339
						z"/>
					<path style="fill:#252384;" d="M393.442,239.031l-5.459-0.747c-1.884-0.258-3.203-1.995-2.945-3.879l0,0
						c0.258-1.884,1.994-3.203,3.879-2.945l5.459,0.747c1.884,0.258,3.203,1.995,2.945,3.879l0,0
						C397.063,237.971,395.327,239.289,393.442,239.031z"/>
					<path style="fill:#261B60;" d="M396.523,233.398c0.014,0.223,0.007,0.45-0.024,0.68h0c-0.258,1.884-1.994,3.203-3.879,2.945
						l-4.777-0.654c-1.299-0.178-2.315-1.065-2.745-2.213c-0.018,0.084-0.048,0.163-0.06,0.25v0
						c-0.258,1.884,1.061,3.621,2.945,3.879l5.459,0.747c1.884,0.258,3.621-1.061,3.879-2.945h0
						C397.459,235.077,397.135,234.118,396.523,233.398z"/>
				</g>
				<g>
					<path style="fill:#252384;" d="M385.951,144.27c0,0,27.397,11.507,27.671,49.041c0,0,21.918-24.109,9.041-60.273
						c-12.877-36.164-50.137-34.794-50.137-34.794L385.951,144.27z"/>
					<path style="fill:#261B60;" d="M385.951,144.27c0,0,26.721,11.249,27.631,47.711c-0.001-0.21,0.002-0.411-0.001-0.627
						c-0.447-36.789-13.201-46.561-25.804-53.261l-3.001,2.148L385.951,144.27z"/>
					<path style="fill:#252384;" d="M308.783,177.694c0,0,75.525,4.384,81.552-33.972c6.027-38.356-13.332-47.665-22.831-48.584
						c-9.498-0.919-28.004-3.118-43.835,12.237c-15.831,15.355-33.504,24.657-31.537,74.337L308.783,177.694z"/>
					<path style="fill:#0C0835;" d="M307.216,167.305c3.293-1.833,6.58-3.714,9.759-5.786c3.197-2.042,6.338-4.19,9.411-6.44
						c6.155-4.488,12.114-9.293,17.739-14.488c-5.108,5.71-10.606,11.089-16.365,16.195c-2.876,2.56-5.838,5.031-8.882,7.413
						c-3.023,2.41-6.188,4.649-9.391,6.855L307.216,167.305z"/>
					<path style="fill:#0C0835;" d="M350.149,110.638c-17.896,9.68-37.575,32.962-37.956,52.247c0,0-7.567-7.025-3.587-17.095
						c3.979-10.07,15.696-21.227,22.187-26.02C337.283,114.977,350.149,110.638,350.149,110.638z"/>
					<path style="fill:#0C0835;" d="M313.281,169.447c-2.397-6.213-0.753-27.417,0-33.444c0.753-6.027,2.979-10.616,3.219-11.746
						c0.24-1.13-0.28-1.471-0.28-1.471c12.46-19.176,30.143-21.919,48.072-27.529l-1.031-0.509
						c-10.133-0.803-25.866-0.687-39.592,12.627c-15.831,15.355-33.504,24.657-31.537,74.337l16.651-4.018
						c0,0,25.828,1.495,48.482-4.932C332.075,177.711,315.677,175.659,313.281,169.447z"/>
					<path style="fill:#0C0835;" d="M380.983,143.6c-7.402,11.555-16.562,22.337-51.532,27.36
						c-23.295,3.346-26.978-1.434-26.978-1.434s40.659-2.709,57.086-11.044C375.987,150.147,380.983,143.6,380.983,143.6z"/>
				</g>
				<g>
					<path style="fill:#FFA6A4;" d="M313.988,123.697c4.526-13.242,27.215-28.194,53.516-28.56c0,0-13.516-3.288-29.224,2.557
						c-15.708,5.845-27.014,15.377-33.233,26.136C298.829,134.589,313.988,123.697,313.988,123.697z"/>
					<path style="fill:#F97068;" d="M336.905,101.277c-14.383,5.753-22.374,17.945-22.374,17.945
						c-0.725,0.091-7.286,1.312-7.388,1.331c-0.747,1.079-1.455,2.17-2.095,3.277c-0.223,0.387-0.412,0.738-0.582,1.07
						c2.057-0.142,5.074-0.278,5.87,0.075c0.327,0.145,0.981,0.101,2.003-0.151c0.986-0.652,1.65-1.128,1.65-1.128
						c4.526-13.242,27.214-28.194,53.516-28.56C358.651,95.025,351.289,95.524,336.905,101.277z"/>
					<path style="fill:#FFA6A4;" d="M310.473,170.374c-1.238-24.6,2.237-41.38,5.342-45.946c3.105-4.566-9.636-2.58-12.194,1.005
						c-1.657,2.322-7.262,21.89-5.205,45.113S310.473,170.374,310.473,170.374z"/>
					<path style="fill:#F97068;" d="M313.529,121.776c1.094,0.415,1.413,0.963,0.637,2.15c-0.776,1.187-3.973,11.598-4.794,20.776
						c-0.822,9.178-0.411,18.813-0.594,19.908c-0.182,1.096-8.215,3.118-10.637,2.017c0.069,1.293,0.159,2.598,0.275,3.917
						c0.152,1.715,0.348,3.169,0.579,4.403c2.44,0.275,5.827,0.395,8.92,0.443c1.499-2.541,2.558-5.018,2.558-5.018
						c-1.238-24.6,2.237-41.38,5.342-45.946C317.07,122.582,315.734,121.807,313.529,121.776z"/>
					<path style="fill:#F97068;" d="M308.351,169.18c-3.217-0.947-12.774,0.556-14.328,5.251
						c-3.532,10.678-2.167,36.435,4.505,43.45c2.431,2.556,9.907,2.861,12.626,2.324c6.902-1.361,8.031-12.055,7.055-26.497
						C317.234,179.265,312.815,170.494,308.351,169.18z"/>
					<path style="fill:#CB3034;" d="M298.529,217.881c2.431,2.556,9.907,2.861,12.626,2.324c3.967-0.782,6.02-4.658,6.869-10.545
						c-3.32,2.848-11.806,1.936-16.096-0.004c0,0,0.703-12.823-1.569-20.055c0,0-4.062,8.962-6.534,17.286
						C294.887,211.689,296.45,215.695,298.529,217.881z"/>
					<path style="fill:#FFA6A4;" d="M307.185,194.453c0.872,12.9-2.174,23.611-6.804,23.924c-4.63,0.313-9.09-9.891-9.961-22.791
						c-0.872-12.9,2.174-23.611,6.804-23.924C301.853,171.349,306.313,181.553,307.185,194.453z"/>
					<path style="fill:#F97068;" d="M301.281,199.881c0,0-5.915,0.738-8.198,9.688c1.91,5.512,4.572,8.992,7.298,8.807
						c2.355-0.159,4.297-3.018,5.525-7.478c-1.496-0.316-2.876-0.745-3.978-1.243C301.928,209.656,302.448,207.571,301.281,199.881z
						"/>
					<path style="fill:#F97068;" d="M301.154,195.96c0.653,9.662-1.094,17.374-5.396,17.664c-4.303,0.291-8.32-7.306-8.973-16.968
						c-0.653-9.662,2.305-17.73,6.608-18.021C297.695,178.345,300.501,186.298,301.154,195.96z"/>
					<path style="fill:#CB3034;" d="M294.68,210.28c-1.964,0.133-3.877-1.032-5.571-3.12c1.706,4.08,4.125,6.634,6.648,6.464
						c3.7-0.25,5.505-5.995,5.524-13.743C300.362,205.979,298.181,210.044,294.68,210.28z"/>
				</g>
			</g>
		</g>
	</g>
	<g>
		<g>
			<g>
				<path style="fill:#FFC5C7;" d="M503.407,246.55c-0.894,3.288,1.937,6.211,2.85,6.759c0.913,0.548,7.123,3.105,10.959,3.196
					c3.835,0.091,9.498-8.036,7.488-8.95c-2.009-0.913-16.073-1.918-17.625-1.918S503.407,246.55,503.407,246.55z"/>
				<path style="fill:#FFFFFF;" d="M513.609,244.815c0.959,9.863,4.383,17.534,5.616,17.671c1.233,0.137,13.471-3.973,16.873-5.479
					c3.401-1.507,0.784-24.655-1.295-24.247c-2.078,0.408-6.893,4.855-10.757,6.987
					C520.183,241.879,513.609,244.815,513.609,244.815z"/>
				<path style="fill:#DCEDFF;" d="M532.977,248.915c-1.295,1.974-11.147,6.977-16.505,8.801c1.08,2.912,2.166,4.705,2.754,4.77
					c1.056,0.117,10.179-2.879,14.915-4.688C534.021,254.133,532.977,248.915,532.977,248.915z"/>
				<path style="fill:#FFC5C7;" d="M503.427,246.094c-0.379,3.913,3.105,4.475,7.397,3.47c4.292-1.005,11.872-10.502,15.251-14.794
					c3.379-4.292,9.657-11.941,10.89-12.626c1.233-0.685,3.973-1.048,6.576-4.908c2.603-3.859,0.137-11.941-0.891-12.9
					c-1.027-0.959-10.662,2.243-11.872,3.861c-1.21,1.618,0.023,10.317-0.388,11.413c-0.411,1.096-9.064,10.046-12.717,12.237
					C514.02,234.039,503.701,243.263,503.427,246.094z"/>
				<path style="fill:#FE8A8B;" d="M537.365,210.793c1.146-0.548,1.594-3.036,0.866-2.598c-0.728,0.439-1.944,0.429-3.588,0.406
					c-1.645-0.023-2.309-0.165-2.309-0.165s-0.247,1.078-0.303,1.962C532.031,210.398,536.219,211.341,537.365,210.793z"/>
				<path style="fill:#FE8A8B;" d="M544.645,211.359c-0.58-1.246-1.029-2.192-1.029-2.192l-6.921,6.225
					c-1.657-1.534-3.719-2.933-3.719-2.933l-0.643,1.015c0.917,1.771,1.557,5.515,1.511,6.428c0,0,0.913,1.096,1.461,1.187
					c0,0-7.717,10.959-12.557,16.347c-4.812,5.356-8.177,9.989-10.371,11.478c4.382-2.425,10.695-10.333,13.697-14.146
					c3.379-4.292,9.657-11.941,10.89-12.626c1.233-0.685,3.973-1.048,6.576-4.908C544.573,215.706,544.802,213.511,544.645,211.359z
					"/>
				<path style="fill:#0C0835;" d="M531.138,211.984c0.032,0.638,6.054,6.21,6.68,6.849c0.047,0.048,0.544,0.122,0.691,0
					c1.819-1.502,10.269-15.055,10.438-15.544c0.158-0.456-4.458-5.118-5.88-6.366c-0.194-0.17-1.05-0.067-1.204,0.139
					C540.17,199.324,531.096,211.159,531.138,211.984z"/>
				<path style="fill:#252384;" d="M531.828,211.984c0.032,0.638,6.054,6.21,6.68,6.849c0.626,0.639,10.946-15.016,11.128-15.544
					c0.158-0.456-5.025-5.043-6.447-6.29c-0.194-0.17-0.483-0.143-0.637,0.063C540.86,199.324,531.787,211.159,531.828,211.984z"/>
				<path style="fill:#57AFF7;" d="M532.977,211.068c0.03,0.597,5.663,5.81,6.249,6.408c0.586,0.598,10.24-14.048,10.411-14.542
					c0.147-0.427-4.701-4.717-6.031-5.884c-0.181-0.159-0.452-0.134-0.596,0.059C541.427,199.224,532.938,210.297,532.977,211.068z"
					/>
				<path style="fill:#FFC5C7;" d="M537.388,203.429c1.039-0.6,2.409-2.632,2.568-3.317c0.16-0.685,0.137-1.301-0.388-1.438
					c-0.525-0.137-2.329,2.009-3.196,2.648c-0.868,0.639-1.964,1.964-1.621,2.854c0.342,0.89,2.192,0.548,2.397,0.411
					C537.353,204.45,537.388,203.429,537.388,203.429z"/>
				<path style="fill:#FE8A8B;" d="M539.863,198.854c0.259,0.779-2.025,3.904-3.893,4.803l0.615,0.766c0,0,0.309-0.067,0.707-0.16
					c0.079-0.347,0.097-0.834,0.097-0.834c1.039-0.6,2.409-2.632,2.568-3.317C540.077,199.593,540.091,199.116,539.863,198.854z"/>
				<path style="fill:#FFC5C7;" d="M534.844,206.587c1.779-0.915,3.115-0.812,4.074-1.189c0.959-0.377,1.233-1.815,0.617-2.055
					c-0.617-0.24-4.521,0.377-5.548,0.822c-1.027,0.445-1.652,2.496-1.652,2.496L534.844,206.587z"/>
				<path style="fill:#FE8A8B;" d="M535.671,205.52c-0.982,0.183-1.301,0-1.301,0c0,0.378-0.371,0.567-0.812,1.105l1.286-0.038
					c1.779-0.915,3.115-0.812,4.073-1.189c0.437-0.172,0.724-0.565,0.857-0.964C539.302,205.223,536.648,205.338,535.671,205.52z"/>
				<path style="fill:#FFC5C7;" d="M530.778,208.197c0.822,1.264,5.342,0.716,6.256,0.579c0.913-0.137,1.522-0.707,1.471-1.283
					c-0.102-1.16-6.038-0.955-6.54-0.772C531.463,206.905,530.778,208.197,530.778,208.197z"/>
				<path style="fill:#FE8A8B;" d="M538.452,207.773c-0.656,0.608-2.153,0.955-3.769,1.085c-1.399,0.112-2.194,0.058-2.378,0.042
					c1.669,0.269,4.087-0.028,4.728-0.124C537.797,208.662,538.321,208.243,538.452,207.773z"/>
			</g>
			<g>
				<g>
					<path style="fill:#FFDCDC;" d="M552.856,468.581c0.274,2.397,1.233,3.288,4.726,3.767c3.493,0.479,8.63,0.411,11.301-2.192
						c2.671-2.603,4.315-5.616,4.521-6.918c0.206-1.301,0.137-2.74,0.548-3.425c0.411-0.685,2.584-1.112,2.316-4.932
						C576,451.063,552.856,468.581,552.856,468.581z"/>
					<path style="fill:#F97068;" d="M575.475,445.811c-0.394-5.304-12.962-3.258-13.031-1.134
						c-0.068,2.123-3.014,11.027-5.906,13.731c0,0,0.002,0.005,0.002,0.005c-3.787,1.722-5.214,6.034-3.685,10.167
						c1.297,3.507,11.027,2.658,13.356,1.37c2.455-1.358,4.883-4.913,5.611-6.837l0.001-0.001c0.528-1.135,0.758-2.819,1.922-4.257
						c1.164-1.438,1.781-1.164,2.329-2.877C576.622,454.266,575.869,451.115,575.475,445.811z"/>
					<path style="fill:#FFDCDC;" d="M564.734,445.586c-1.209,5.47-3.816,9.032-3.053,9.668c0.763,0.636,5.47,1.399,6.361,0
						c0.89-1.399,2.417-7.315,2.417-9.668S564.734,445.586,564.734,445.586z"/>
				</g>
				<g>
					<path style="fill:#F97068;" d="M536.925,450.072c0.314-2.381,0.345-5.874-1.672-9.847c-2.017-3.973-1.918-4.315-4.247-4.726
						c-2.329-0.411-10.822-1.575-10.822-1.575s-1.438,3.973-6.438,6.712c-5,2.74-6.027,3.699-9.246,3.699
						c-3.219,0-10.334,0.379-7.534,8.904c0,0,2.26,0.982,7.922,0.936c5.662-0.046,11.415-0.502,13.47-1.279
						c2.055-0.776,4.201-1.187,5.434-0.685c1.233,0.502,5.251,0.32,7.534,0C533.609,451.891,536.925,450.072,536.925,450.072z"/>
					<path style="fill:#FFDCDC;" d="M510.065,442.267c-0.353,0.118-0.484,0.531-0.282,0.843c0.675,1.046,2.076,2.193,2.822,1.932
						c0.913-0.32,5.147-3.523,7.397-5.479c1.05-0.913,2.055-2.648,1.461-3.47c-0.594-0.822-2.146-1.781-2.785-1.279
						c-0.639,0.502-1.872,2.913-4.475,5.064C512.438,441.336,510.883,441.995,510.065,442.267z"/>
					<path style="fill:#FFDCDC;" d="M496.966,453.238c5.616,0.548,18.554-0.548,21.195-1.233c2.641-0.685,4.079-1.849,6.613-0.89
						c2.534,0.959,10.342-0.548,11.575-1.027c1.233-0.479,0.89,1.45,0,1.65c-0.89,0.2-6.507,1.387-9.384,1.65
						c-2.877,0.263-3.014-1.861-6.438-0.285c-3.425,1.575-9.041,1.575-11.507,1.575c-2.466,0-9.521,0.548-10.822,0
						C496.897,454.129,496.966,453.238,496.966,453.238z"/>
				</g>
				<path style="fill:#0E35AF;" d="M561.417,445.91c3.842,1.048,14.794,0.685,15.342-0.822c0.548-1.507-1.507-25.205-1.507-32.74
					s-2.603-26.164-2.192-28.219c0.411-2.055,0.411-3.562-0.274-7.123c-0.685-3.562-0.955-44.84-4.246-72.648l-42.739,4.018
					c0,0-6.849,26.301-7.397,44.931c-0.548,18.63,0.091,27.58,0,30.319c-0.091,2.74,1.165,5.479,1.45,7.671
					c0.285,2.192-0.08,18.447-0.445,24.292c-0.365,5.845-0.632,16.621-1.229,17.899c-0.597,1.279,12.918,3.836,14.745,2.922
					c1.826-0.913,1.826-1.096,1.826-10.594c0-9.498,1.279-32.329,1.279-36.347c0-4.018,1.279-4.749,0.731-6.758
					c-0.548-2.009,1.461-11.141,3.47-17.899c2.009-6.758,4.383-14.064,4.383-14.064s5.662,36.529,7.489,38.721
					c1.826,2.192,1.461,7.854,2.557,11.142c1.096,3.288,4.383,25.571,4.383,32.328S557.399,444.814,561.417,445.91z"/>
				<path style="fill:#001E7F;" d="M570.518,446.445c1.85-0.091,3.54-0.285,4.702-0.574c0.456-1.949,0.942-4.403,1.447-7.252
					c-0.421-7.974-1.414-21.03-1.414-26.271c0-7.534-2.603-26.164-2.192-28.219c0.411-2.055,0.411-3.562-0.274-7.123
					c-0.685-3.562-0.955-44.84-4.247-72.648l-8.6,0.809l-25.167,9.465c12.13,0.339,26.24-1.56,26.24-1.56s1.967,22.265,2.034,25.552
					c0.067,3.288,2.441,33.985,2.441,36.81c0,2.825,1.096,3.641,1.279,6.703c0.183,3.063-2.192,4.158-2.192,4.158
					s3.288,1.096,3.288,1.644c0,0.548,0.685,9.361,0.685,12.785s1.492,8.082,1.911,18.356c0.418,10.274,1.788,22.466,1.788,23.836
					C572.246,444.252,572.241,445.644,570.518,446.445z"/>
				<path style="fill:#001E7F;" d="M542.794,330.039l-9.178-2.329l7.123,3.425l-5.753,0.137l4.408,1.574
					c0,0,1.374,11.446-1.486,19.11c-3.135,8.402-4.566,29.863-5.525,31.507c-0.959,1.644-3.425,1.233-3.425,1.233
					s2.603,0.274,2.74,2.192c0.137,1.918-0.548,7.26-0.548,12.922c0,5.662-0.548,14.643-1.096,18.463
					c-0.548,3.82-0.804,13.167-1.096,15.65c-0.292,2.483-4.025,1.903-4.025,1.903l-0.001,0.001c1.893,0.357,3.845,0.633,5.37,0.734
					c5.642,0.531,4.47-1.558,4.462-12.66c0.14-10.345,1.264-30.661,1.264-34.43c0-4.018,1.279-4.749,0.731-6.758
					c-0.548-2.009,1.461-11.142,3.47-17.899s4.383-14.064,4.383-14.064s-0.997-9.342-1.134-11.533
					C543.342,337.025,542.794,330.039,542.794,330.039z"/>
			</g>
			<g>
				<path style="fill:#FFFFFF;" d="M550.458,225.911c-9.863,4.84-11.41,4.653-15.655,6.848c-4.245,2.196-4.71,25.298-4.71,28.859
					c0,3.562-0.046,17.717-0.868,21.552c-0.822,3.836-3.973,18.082-5.068,20.274c-1.096,2.192-3.151,5.89-0.548,8.082
					c2.603,2.192,8.337,3.699,21.086,2.877c12.749-0.822,26.996-8.63,27.68-9.726c0.685-1.096-4.521-21.233-4.521-25.068
					s-0.548-6.712-0.822-8.493c-0.274-1.781,4.371-10.137,5.405-15.479c1.034-5.342,7.911-20.08,7.006-22.78
					c-0.904-2.699-10.795-5.707-17.429-9.14C555.381,220.284,550.458,225.911,550.458,225.911z"/>
				<path style="fill:#DCEDFF;" d="M548.205,229.766c0.005,0.588-0.01,1.172,0.135,1.732c0.105,0.561,0.291,1.108,0.603,1.566
					c0.576,0.963,1.647,1.455,2.752,1.461c1.108,0.025,2.236-0.265,3.317-0.663c1.089-0.392,2.129-0.919,3.193-1.425
					c-0.475,0.345-0.969,0.666-1.459,0.997c-0.523,0.271-1.029,0.583-1.576,0.818c-1.075,0.5-2.262,0.835-3.496,0.82l-0.463-0.022
					l-0.458-0.104c-0.311-0.047-0.595-0.199-0.88-0.334c-0.535-0.326-1.028-0.769-1.292-1.335
					C547.974,232.182,547.966,230.904,548.205,229.766z"/>
				<path style="fill:#DCEDFF;" d="M572.376,304.678c0.685-1.096-4.521-21.233-4.521-25.068c0-3.836-0.548-6.712-0.822-8.493
					c-0.274-1.781,4.371-10.137,5.405-15.479c0.18-0.928,0.538-2.144,0.999-3.528l-4.056-3.194
					c-3.026,7.015-5.491,19.343-8.094,22.357c-2.603,3.014-8.63,4.247-8.63,4.247s5.765,1.37,8.362,0.822
					c0,0,1.943,10.822,1.585,16.164c-0.358,5.342-1.442,13.424-1.585,14.52c-0.053,0.409-0.067,1.835-0.063,3.462
					C567.279,308.055,571.989,305.297,572.376,304.678z"/>
				<path style="fill:#FFC5C7;" d="M561.644,213.985c-0.318,5.716-0.227,9.643,0.961,10.739c0,0-2.868,9.486-11.507,8.676
					c-2.922-0.274-2.283-5.205-0.639-7.488l-0.365-7.011L561.644,213.985z"/>
				<path style="fill:#FE8A8B;" d="M562.016,223.717L562.016,223.717c-0.617-1.753-0.625-5.17-0.372-9.732l-11.551,4.915
					l0.234,4.496l0,0C552.246,224.286,562.016,223.717,562.016,223.717z"/>
			</g>
			<g>
				<path style="fill:#FFC5C7;" d="M589.103,260.217c1.735,2.648,3.836,9.224,2.648,12.237
					c-1.187,3.014-12.146,16.438-17.078,21.461c-4.931,5.023-6.027,5.845-6.941,7.488c-0.913,1.644-5.297,8.425-6.393,9.452
					c-1.096,1.027-2.945,1.164-2.945,1.164s-1.484,1.507-4.098,1.233c0,0-2.408,1.575-4.258,1.986c0,0-0.685,1.163-1.301,1.266
					c-0.616,0.103-1.301-1.13,0-3.595c1.301-2.466,3.219-3.493,3.63-5.068c0.411-1.575,2.07-4.789,2.07-4.789
					s-3.44,3.282-5.427,3.488c-1.986,0.206-2.167-0.959-1.015-1.918s2.659-2.397,4.097-4.247c1.438-1.849,3.151-3.082,5.685-3.425
					c2.534-0.342,4.315-0.616,5-1.096c0.685-0.479,4.305-5.137,6.913-10.16c2.608-5.023,5.083-11.442,11.192-17.078l-2.192-4.384
					L589.103,260.217z"/>
				<path style="fill:#FE8A8B;" d="M550.146,314.925c0.587-1.389,1.566-2.574,2.626-3.628l0.417-0.383
					c0.124-0.119,0.338-0.27,0.388-0.34c0.215-0.25,0.409-0.58,0.619-0.878c0.406-0.616,0.804-1.243,1.247-1.848
					c-0.242,0.711-0.548,1.39-0.883,2.06c-0.166,0.341-0.342,0.657-0.582,0.994c-0.182,0.221-0.293,0.266-0.431,0.41l-0.394,0.379
					c-0.53,0.505-1.036,1.037-1.545,1.567C551.101,313.791,550.623,314.347,550.146,314.925z"/>
				<path style="fill:#FE8A8B;" d="M554.438,312.779c0.431-0.738,0.925-1.377,1.374-2.049c0.466-0.663,0.886-1.328,1.32-2.06
					c-0.022,0.862-0.398,1.674-0.869,2.371C555.774,311.733,555.172,312.342,554.438,312.779z"/>
				<path style="fill:#FE8A8B;" d="M556.421,313.071c1.269-0.359,1.974-1.051,1.974-1.051s1.849-0.137,2.945-1.164
					c0.448-0.42,1.446-1.804,2.531-3.403c-0.023,0.025-1.261,1.272-2.161,2.301c-1.268,1.449-2.901,0.97-2.901,0.97l0.321-1.336
					C559.13,309.389,557.8,312.42,556.421,313.071z"/>
				<path style="fill:#FE8A8B;" d="M592.037,269.105c-0.145,1.25-0.232,2.243-2.325,5.523c-2.355,3.691-16.027,19.246-18.972,22.123
					c-2.945,2.876-2.877,3.059-4.827,7.604c0.824-1.285,1.516-2.405,1.82-2.953c0.913-1.644,2.009-2.466,6.941-7.488
					c4.932-5.023,15.89-18.447,17.078-21.461C592.096,271.578,592.157,270.399,592.037,269.105z"/>
				<path style="fill:#FE8A8B;" d="M582.469,265.51l0.895,1.698c0,0-1.406,0.373-2.481,1.41l-1.742-3.373L582.469,265.51z"/>
				<path style="fill:#FFFFFF;" d="M571.127,256.225c-2.244-5.149-2.684-13.51,0-17.911c2.684-4.401,7.261-5.985,8.317-5.457
					c1.056,0.528,3.521,7.393,6.073,10.561c2.552,3.169,9.505,12.058,9.681,12.806c0.176,0.748-5.987,6.787-17.075,11.222
					C576.804,267.974,571.127,256.225,571.127,256.225z"/>
				<path style="fill:#DCEDFF;" d="M578.822,260.217l1.461,3.521c0,0-7.842-8.481-10.894-14.809c0.234,2.64,0.837,5.228,1.739,7.296
					c0,0,5.677,11.75,6.997,11.222c1.897-0.759,3.638-1.566,5.24-2.384L578.822,260.217z"/>
			</g>
			<g>
				<path style="fill:#252384;" d="M567.53,206.541c2.015-4.922,4.481-10.127,1.376-12.867c0,0,3.47-1.096,5.297-0.731
					c0,0-1.827-1.096-5.479-1.461c0,0,0.718-8.31-1.193-11.872c0,0,0.006,3.653-0.998,5.114c0,0-2.009-4.292-7.945-5.936
					c-5.936-1.644-11.689-1.826-15.799,2.374c-4.11,4.201-8.922,9.587-1.995,17.716c6.927,8.129,16.059,10.229,19.986,10.777
					C564.705,210.204,567.53,206.541,567.53,206.541z"/>
				<path style="fill:#0C0835;" d="M546.356,190.93c1.361,0.642,2.794,0.979,4.222,1.332c1.435,0.324,2.879,0.614,4.333,0.839
					c1.452,0.238,2.913,0.421,4.376,0.559c1.465,0.106,2.931,0.236,4.418,0.004c-1.375,0.648-2.942,0.819-4.446,0.851
					c-1.518,0.034-3.028-0.107-4.523-0.333c-1.49-0.253-2.967-0.598-4.397-1.102C548.919,192.582,547.493,191.936,546.356,190.93z"
					/>
				<path style="fill:#0C0835;" d="M562.376,198.035c1.583-0.392,4.206-2.926,4.206-2.926s-2.718,1.921-8.309,1.463
					c-5.591-0.458-9.322-1.619-9.322-1.619s5.761,3.381,7.884,3.926C558.959,199.424,562.376,198.035,562.376,198.035z"/>
				<path style="fill:#0C0835;" d="M542.924,194.336c-2.595-1.282-3.349,0.019-3.349,1.115c0,1.096,1.217,3.428,1.217,3.428
					L542.924,194.336z"/>
				<path style="fill:#0C0835;" d="M570.295,198.363c-2.071,4.099-6.687,7.274-6.687,7.274s-1.803,2.431,0.221,3.417
					c0.084,0.041,0.179,0.077,0.271,0.114c2.1-0.906,3.428-2.627,3.428-2.627C568.678,203.737,569.968,200.843,570.295,198.363z"/>
				<path style="fill:#FFC5C7;" d="M563.609,205.637c0,0,2.123-1.575,3.562,0c1.438,1.575-1.301,8.904-4.52,7.123
					c0,0-5.342,6.781-9.041,8.699c-3.699,1.918-6.164,0.959-7.397-0.411c-1.233-1.37-5.369-6.989-5.753-12.945
					c-0.137-2.123,0.479-6.301,0.479-7.192s-0.548-4.384,0.205-5.411c0.753-1.027,1.781-1.164,1.781-1.164s4.589,2.26,8.562,2.603
					c0,0-1.918-1.233-2.534-1.986c0,0,7.877,2.74,13.425,3.082c0,0-0.069,3.151,0.205,4.52
					C562.855,203.925,563.609,205.637,563.609,205.637z"/>
				<path style="fill:#FE8A8B;" d="M566.474,207.641c-0.192-1.343-1.318-1.607-2.238-0.671c-0.943,0.959-1.311,3.996-1.119,4.444
					c0.192,0.448,1.695,0.416,2.046-0.512c0.352-0.927-0.479-1.508-1.343-1.234c0,0-0.137-1.353,0.615-2.225
					c0.753-0.872,1.447-0.538,1.607-0.314C566.203,207.353,566.474,207.641,566.474,207.641z"/>
				<g>
					<path style="fill:#0C0835;" d="M557.637,201.701c-0.302-0.302-0.626-0.582-0.967-0.849c-0.344-0.262-0.714-0.497-1.112-0.689
						c-0.394-0.192-0.807-0.399-1.256-0.434c-0.445-0.04-0.898-0.003-1.32,0.173l0.001,0.061c0.213,0.088,0.417,0.144,0.618,0.203
						l0.592,0.167c0.384,0.115,0.789,0.151,1.177,0.283c0.386,0.132,0.764,0.3,1.135,0.494c0.374,0.189,0.732,0.413,1.094,0.638
						L557.637,201.701z"/>
					<path style="fill:#0C0835;" d="M542.599,200.163c0.381-0.194,0.78-0.336,1.19-0.421c0.408-0.09,0.822-0.135,1.235-0.146
						c0.416-0.009,0.821,0.076,1.231,0.073c0.413,0.001,0.827,0.014,1.283-0.032l0.017-0.059c-0.367-0.281-0.798-0.434-1.238-0.52
						c-0.443-0.091-0.898-0.016-1.336,0.048c-0.441,0.064-0.874,0.176-1.284,0.342c-0.407,0.171-0.799,0.383-1.132,0.663
						L542.599,200.163z"/>
					<path style="fill:#0C0835;" d="M553.395,204.109c0.057-0.579,0.381-1.022,0.723-0.988c0.342,0.034,0.573,0.531,0.516,1.111
						c-0.057,0.579-0.381,1.022-0.724,0.988C553.568,205.186,553.337,204.688,553.395,204.109z"/>
					<path style="fill:#0C0835;" d="M544.299,203.377c0.057-0.579,0.331-1.027,0.61-0.999c0.28,0.028,0.46,0.52,0.403,1.099
						c-0.057,0.579-0.331,1.027-0.61,0.999C544.422,204.449,544.241,203.957,544.299,203.377z"/>
					<path style="fill:#FE8A8B;" d="M550.12,209.74c-0.833,0.551-2.002,0.539-2.824-0.029c0.066,0.447,0.234,0.882,0.656,1.04
						c0.423,0.159,0.906,0.112,1.318-0.071C549.683,210.497,549.841,210.096,550.12,209.74z"/>
					<g>
						<path style="fill:#C31F2A;" d="M553.047,213.14c-1.913,0.031-6.481-0.322-7.963-0.535c0.449,1.936,1.859,3.848,4.022,3.849
							C551.053,216.455,552.456,214.855,553.047,213.14z"/>
						<path style="fill:#FB8384;" d="M551.099,215.822c-0.743-0.234-1.525-0.114-1.843-0.018c0,0-0.959-0.707-2.461-0.242
							c0.629,0.539,1.398,0.892,2.311,0.892C549.857,216.454,550.525,216.213,551.099,215.822z"/>
						<path style="fill:#FFFFFF;" d="M546.262,214.224c1.89,0.603,4.014,0.429,5.884-0.227c0.033-0.286,0.076-0.574,0.119-0.862
							c-1.886-0.04-4.926-0.269-6.549-0.451C545.818,213.219,545.992,213.742,546.262,214.224z"/>
					</g>
				</g>
			</g>
		</g>
		<g>
			<g style="opacity:0.25;">
				<path style="fill:#00264F;" d="M600.512,189.889c0.41-1.107,0.89-2.123,1.432-3.049c0.542-0.926,1.303-1.718,2.297-2.371
					c0.988-0.653,2.313-1.083,3.974-1.293c0.509-0.069,1.231-0.15,2.166-0.238c0.935-0.088,1.906-0.246,2.916-0.48
					c1.009-0.232,1.921-0.578,2.726-1.039c0.809-0.459,1.365-1.088,1.662-1.89c0.212-0.571,0.235-1.139,0.066-1.698
					c-0.167-0.561-0.468-1.054-0.902-1.475c-0.439-0.423-0.967-0.751-1.585-0.98c-0.925-0.343-1.772-0.402-2.536-0.181
					c-0.764,0.221-1.437,0.546-2.008,0.97c-0.576,0.425-1.091,0.771-1.541,1.044l-5.166-7.59c1.243-1.34,2.672-2.34,4.279-2.997
					c1.602-0.659,3.319-0.988,5.146-0.992c1.827-0.004,3.67,0.339,5.524,1.026c1.472,0.546,2.87,1.306,4.201,2.278
					c1.334,0.975,2.445,2.15,3.345,3.53c0.895,1.379,1.443,2.954,1.639,4.728c0.2,1.776-0.097,3.735-0.893,5.88
					c-0.341,0.92-0.744,1.774-1.212,2.559c-0.468,0.785-1.023,1.483-1.668,2.095c-0.646,0.611-1.389,1.141-2.237,1.588
					c-0.848,0.448-1.806,0.801-2.868,1.062c-1.408,0.35-2.796,0.576-4.174,0.674c-1.379,0.1-2.577,0.276-3.594,0.529
					c-1.018,0.256-1.684,0.806-1.996,1.648L600.512,189.889z M596.784,200.476l0.193-0.519c0.921-2.482,3.68-3.748,6.162-2.827v0
					c2.482,0.921,3.748,3.679,2.827,6.162l-0.193,0.519c-0.921,2.482-3.679,3.748-6.162,2.827l0,0
					C597.129,205.717,595.863,202.958,596.784,200.476z"/>
				<path style="fill:#00264F;" d="M584.708,190.815c-0.129-0.851-0.183-1.669-0.164-2.451c0.019-0.783,0.224-1.556,0.628-2.325
					c0.4-0.766,1.093-1.508,2.079-2.229c0.3-0.224,0.733-0.531,1.298-0.917c0.565-0.386,1.129-0.83,1.691-1.337
					c0.562-0.505,1.022-1.048,1.372-1.626c0.354-0.579,0.486-1.176,0.392-1.793c-0.067-0.439-0.253-0.81-0.558-1.107
					c-0.305-0.299-0.671-0.507-1.097-0.622c-0.43-0.115-0.882-0.137-1.357-0.065c-0.711,0.108-1.273,0.369-1.682,0.78
					c-0.409,0.411-0.724,0.856-0.938,1.329c-0.218,0.475-0.424,0.877-0.615,1.211l-5.978-3.017c0.32-1.294,0.878-2.437,1.671-3.424
					c0.79-0.987,1.768-1.803,2.932-2.451c1.164-0.648,2.461-1.081,3.887-1.297c1.132-0.172,2.293-0.181,3.485-0.031
					c1.196,0.151,2.319,0.508,3.381,1.07c1.058,0.564,1.965,1.375,2.716,2.437c0.755,1.062,1.258,2.417,1.508,4.067
					c0.107,0.708,0.152,1.395,0.131,2.061c-0.021,0.666-0.128,1.308-0.324,1.926c-0.196,0.618-0.483,1.219-0.866,1.804
					c-0.383,0.585-0.869,1.149-1.455,1.691c-0.774,0.721-1.58,1.355-2.425,1.905c-0.844,0.551-1.547,1.087-2.106,1.608
					c-0.559,0.523-0.789,1.109-0.691,1.757L584.708,190.815z M586.07,198.887l-0.061-0.399c-0.29-1.909,1.023-3.691,2.932-3.981l0,0
					c1.909-0.29,3.691,1.023,3.981,2.932l0.061,0.399c0.289,1.909-1.023,3.691-2.932,3.981h0
					C588.142,202.109,586.36,200.796,586.07,198.887z"/>
			</g>
			<g>
				<g>
					<g>
						<path style="fill:#F97068;" d="M595.512,184.889c0.41-1.107,0.89-2.123,1.432-3.049c0.542-0.926,1.303-1.718,2.297-2.371
							c0.988-0.653,2.313-1.083,3.974-1.293c0.509-0.069,1.231-0.15,2.166-0.238c0.935-0.088,1.906-0.246,2.916-0.48
							c1.009-0.232,1.921-0.578,2.726-1.039c0.809-0.459,1.365-1.088,1.662-1.89c0.212-0.571,0.235-1.139,0.066-1.698
							c-0.167-0.561-0.468-1.054-0.902-1.475c-0.439-0.423-0.967-0.751-1.585-0.98c-0.925-0.343-1.772-0.402-2.536-0.181
							c-0.764,0.221-1.437,0.546-2.008,0.97c-0.576,0.425-1.091,0.771-1.541,1.044l-5.166-7.59c1.243-1.34,2.672-2.34,4.279-2.997
							c1.602-0.659,3.319-0.988,5.146-0.992c1.827-0.004,3.67,0.339,5.524,1.026c1.472,0.546,2.87,1.306,4.201,2.278
							c1.334,0.975,2.445,2.15,3.345,3.53c0.895,1.379,1.443,2.954,1.639,4.728c0.2,1.776-0.097,3.735-0.893,5.88
							c-0.341,0.92-0.744,1.774-1.212,2.559c-0.468,0.785-1.023,1.483-1.668,2.095c-0.646,0.611-1.389,1.141-2.237,1.588
							c-0.848,0.448-1.806,0.801-2.868,1.062c-1.408,0.35-2.796,0.576-4.174,0.674c-1.379,0.1-2.577,0.276-3.594,0.529
							c-1.018,0.256-1.684,0.806-1.996,1.648L595.512,184.889z M591.784,195.476l0.193-0.519c0.921-2.482,3.68-3.748,6.162-2.827v0
							c2.482,0.921,3.748,3.679,2.827,6.162l-0.193,0.519c-0.921,2.482-3.679,3.748-6.162,2.827l0,0
							C592.129,200.717,590.863,197.958,591.784,195.476z"/>
					</g>
					<g>
						<path style="fill:#F97068;" d="M579.708,185.815c-0.129-0.851-0.183-1.669-0.164-2.451c0.019-0.783,0.224-1.556,0.628-2.325
							c0.4-0.766,1.093-1.508,2.079-2.229c0.3-0.224,0.733-0.531,1.298-0.917c0.565-0.386,1.129-0.83,1.691-1.337
							c0.562-0.505,1.022-1.048,1.372-1.626c0.354-0.579,0.486-1.176,0.392-1.793c-0.067-0.439-0.253-0.81-0.558-1.107
							c-0.305-0.299-0.671-0.507-1.097-0.622c-0.43-0.115-0.882-0.137-1.357-0.065c-0.711,0.108-1.273,0.369-1.682,0.78
							c-0.409,0.411-0.724,0.856-0.938,1.329c-0.218,0.475-0.424,0.877-0.615,1.211l-5.978-3.017
							c0.32-1.294,0.878-2.437,1.671-3.424c0.79-0.987,1.768-1.803,2.932-2.451c1.164-0.648,2.461-1.081,3.887-1.297
							c1.132-0.172,2.293-0.181,3.485-0.031c1.196,0.151,2.319,0.508,3.381,1.07c1.058,0.564,1.965,1.375,2.716,2.437
							c0.755,1.062,1.258,2.417,1.508,4.067c0.107,0.708,0.152,1.395,0.131,2.061c-0.021,0.666-0.128,1.308-0.324,1.926
							c-0.196,0.618-0.483,1.219-0.866,1.804c-0.383,0.585-0.869,1.149-1.455,1.691c-0.774,0.721-1.58,1.355-2.425,1.905
							c-0.844,0.551-1.547,1.087-2.106,1.608c-0.559,0.523-0.789,1.109-0.691,1.757L579.708,185.815z M581.07,193.887l-0.061-0.399
							c-0.29-1.909,1.023-3.691,2.932-3.981l0,0c1.909-0.29,3.691,1.023,3.981,2.932l0.061,0.399
							c0.289,1.909-1.023,3.691-2.932,3.981h0C583.142,197.109,581.36,195.796,581.07,193.887z"/>
					</g>
				</g>
			</g>
		</g>
	</g>
	<g>
		<g>
			<g>
				<g>
					<path style="fill:#F97068;" d="M611.957,413.826c4.857,0.008,8.958-4.995,8.846-10.93c-0.073-3.867-0.642-7.693-1.702-11.283
						c-2.43-8.229-7.436-16.183-5.629-24.874c0.744-3.579,2.628-6.89,2.681-10.546c0.055-3.769-1.846-7.013-3.736-9.885
						c-3.149-4.783-6.503-9.36-10.045-13.707c-0.864,8.173-4.79,15.452-7.521,23.084c-2.731,7.633-4.144,17.011-0.262,23.481
						c2.772,4.621,8.017,7.403,8.625,13.174c0.248,2.351-0.373,4.745-0.505,7.13C602.334,406.267,606.514,412.757,611.957,413.826
						L611.957,413.826z"/>
				</g>
				<g>
					<path style="fill:#FFA6A4;" d="M615.883,424.795l-2.1-9.77c-0.515-3.28-1.066-6.555-1.679-9.818
						c-1.211-6.526-2.614-13.021-4.367-19.409c-0.446-1.594-0.904-3.185-1.417-4.755c-0.245-0.789-0.523-1.565-0.79-2.345
						c-0.288-0.762-0.576-1.532-0.824-2.402c-0.441-1.689-0.643-3.391-0.707-5.074c-0.094-1.688-0.069-3.364-0.041-5.038
						c0.088-3.343,0.304-6.666,0.428-9.977c0.32-3.302,0.637-6.607,0.202-9.916c0.963,3.219,0.992,6.638,1.112,9.965
						c-0.125,3.336-0.341,6.654-0.428,9.961c-0.028,1.651-0.052,3.304,0.04,4.938c0.06,1.637,0.262,3.26,0.659,4.786
						c0.205,0.732,0.495,1.521,0.797,2.315c0.272,0.793,0.555,1.584,0.803,2.383c0.52,1.592,0.982,3.199,1.433,4.807
						c1.768,6.443,3.176,12.966,4.392,19.52c0.62,3.275,1.159,6.563,1.695,9.851C615.399,418.143,615.704,421.463,615.883,424.795z"
						/>
					<path style="fill:#FFA6A4;" d="M599.479,356.68c0.956,0.666,1.816,1.348,2.711,2.018c0.44,0.34,0.842,0.742,1.282,1.101
						c0.43,0.37,0.918,0.671,1.427,0.899l-0.159,0.019c0.54-0.503,1.026-1.072,1.555-1.589c0.538-0.505,1.08-1.008,1.636-1.491
						c1.131-0.946,2.342-1.796,3.668-2.508l0.056,0.067c-0.938,1.177-1.992,2.216-3.126,3.159c-0.576,0.461-1.167,0.903-1.76,1.342
						c-0.603,0.428-1.25,0.804-1.842,1.245l-0.084,0.062l-0.075-0.043c-0.503-0.288-0.998-0.562-1.529-0.799
						c-0.521-0.25-1.054-0.497-1.522-0.84c-0.925-0.692-1.76-1.544-2.307-2.585L599.479,356.68z"/>
					<path style="fill:#FFA6A4;" d="M596.07,370.334c0.813,0.264,1.584,0.588,2.341,0.938c0.756,0.352,1.508,0.709,2.205,1.181
						c0.705,0.456,1.411,0.918,2.185,1.236c0.763,0.339,1.582,0.564,2.367,0.835l-0.394,0.089c0.805-1.038,1.618-2.068,2.522-3.019
						c0.917-0.939,1.844-1.87,2.905-2.682l0.066,0.058c-0.672,1.155-1.479,2.191-2.295,3.219c-0.83,1.016-1.749,1.953-2.678,2.881
						l-0.194,0.194l-0.201-0.104c-0.751-0.391-1.458-0.856-2.213-1.221c-0.744-0.387-1.547-0.649-2.342-0.934
						c-0.805-0.267-1.542-0.675-2.265-1.105c-0.723-0.431-1.413-0.923-2.052-1.492L596.07,370.334z"/>
					<path style="fill:#FFA6A4;" d="M605.558,388.642c0.715,0.06,1.319,0.277,1.911,0.518c0.289,0.137,0.553,0.348,0.846,0.499
						c0.284,0.156,0.626,0.231,0.919,0.205l-0.127,0.062c0.2-0.352,0.355-0.739,0.569-1.079c0.222-0.334,0.43-0.68,0.676-0.995
						c0.499-0.625,1.092-1.176,1.818-1.622l0.069,0.054c-0.264,0.81-0.661,1.516-1.152,2.147c-0.249,0.313-0.536,0.596-0.809,0.89
						c-0.281,0.288-0.621,0.529-0.916,0.806l-0.076,0.071l-0.052-0.009c-0.367-0.062-0.672-0.144-1.022-0.165
						c-0.342-0.028-0.702-0.035-1.026-0.141c-0.636-0.24-1.223-0.599-1.669-1.165L605.558,388.642z"/>
					<path style="fill:#FFA6A4;" d="M607.099,404.12c0.495-0.038,0.959-0.034,1.42-0.008c0.461,0.027,0.92,0.041,1.373,0.163
						c0.454,0.112,0.914,0.267,1.382,0.283c0.466,0.03,0.939-0.057,1.392-0.155l-0.157,0.057c0.291-0.324,0.614-0.606,0.941-0.883
						c0.322-0.283,0.647-0.562,1.004-0.799c0.709-0.48,1.457-0.908,2.301-1.208l0.053,0.07c-0.523,0.727-1.142,1.327-1.8,1.875
						c-0.327,0.276-0.685,0.511-1.047,0.742c-0.357,0.236-0.717,0.469-1.11,0.658l-0.126,0.061l-0.032-0.004
						c-0.486-0.063-0.952-0.152-1.425-0.144c-0.471-0.007-0.95,0.099-1.432,0.135c-0.483,0.046-0.958-0.053-1.425-0.167
						c-0.466-0.122-0.923-0.311-1.335-0.591L607.099,404.12z"/>
				</g>
			</g>
			<g>
				<g>
					<path style="fill:#FFA6A4;" d="M616.451,416.995c3.356,3.457,8.646-0.764,12.133-4.763c4.386-5.03,9.101-10.843,9.612-17.952
						c0.192-2.671-0.247-5.327,0.152-7.985c0.914-6.098,5.801-10.337,8.117-15.979c3.358-8.179,0.755-17.515-2.479-25.072
						c-2.122-4.958-4.575-10.116-4.177-15.946c0.364-5.325,3.05-10.155,5.637-14.667c-6.047,0.363-12.861,1.161-17.112,6.932
						c-4.031,5.474-4.239,13.427-3.853,20.458s1.013,14.586-1.946,20.974c-4.019,8.675-14.014,13.799-14.289,23.448
						c-0.139,4.866,2.445,8.807,4.214,12.955c1.149,2.696,1.865,6.147,1.393,9.17c-0.497,3.184,0.287,6.327,2.283,8.14
						L616.451,416.995z"/>
				</g>
				<g>
					<path style="fill:#F97068;" d="M615.883,431.155c0.373-2.328,0.802-4.638,1.196-6.95c0.36-2.32,0.749-4.631,1.03-6.952
						c0.907-4.577,1.597-9.191,1.822-13.817c0.125-2.317,0.079-4.624,0.091-7.007c0.005-2.383,0.279-4.85,0.884-7.188
						c0.603-2.343,1.431-4.572,2.352-6.787c0.972-2.186,2.058-4.331,3.318-6.352c2.436-4.071,5.545-7.719,6.521-12.058
						c0.499-2.153,0.49-4.411,0.189-6.655c-0.363-2.218-0.941-4.518-1.43-6.826c-0.983-4.606-1.876-9.284-2.001-14.102
						c0.108-2.408,0.458-4.827,1.202-7.12c0.726-2.297,1.898-4.426,3.394-6.244c-1.195,2.031-2.023,4.233-2.452,6.488
						c-0.428,2.259-0.467,4.562-0.282,6.844c0.117,4.581,0.983,9.178,1.96,13.742c0.482,2.284,1.057,4.539,1.453,6.956
						c0.325,2.403,0.345,4.911-0.218,7.336c-0.549,2.433-1.689,4.661-2.944,6.686c-1.26,2.033-2.597,3.946-3.802,5.923
						c-1.226,1.964-2.262,4.019-3.198,6.119c-0.88,2.117-1.69,4.3-2.257,6.507c-0.568,2.211-0.819,4.441-0.827,6.752
						c-0.012,2.311,0.035,4.701-0.093,7.073c-0.224,4.757-0.951,9.45-1.839,14.084C618.773,422.19,617.406,426.7,615.883,431.155z"
						/>
					<path style="fill:#F97068;" d="M636.141,334.929c-0.152,0.766-0.447,1.435-0.785,2.075c-0.335,0.642-0.724,1.248-1.283,1.739
						c-0.555,0.493-1.079,1.008-1.429,1.64c-0.367,0.62-0.595,1.335-0.91,1.991l-0.29,0.602l-0.629-0.532
						c-0.419-0.355-0.819-0.727-1.216-1.103c-0.403-0.37-0.769-0.774-1.107-1.203c-0.669-0.867-1.291-1.776-1.734-2.851l0.105-0.097
						c1.036,0.527,1.893,1.22,2.703,1.956c0.401,0.372,0.775,0.768,1.111,1.2c0.342,0.426,0.682,0.854,1.002,1.301l-0.918,0.07
						c0.49-0.537,1.069-1.015,1.507-1.587c0.456-0.56,0.738-1.238,0.988-1.938c0.247-0.702,0.664-1.288,1.135-1.839
						c0.467-0.553,0.979-1.076,1.632-1.503L636.141,334.929z"/>
					<path style="fill:#F97068;" d="M641.835,355.188c-0.098,1.078-0.462,2.12-0.969,3.066c-0.52,0.937-1.137,1.833-1.966,2.52
						c-0.826,0.689-1.677,1.313-2.409,2.061c-0.762,0.722-1.419,1.545-2.241,2.272l-0.428,0.379l-0.388-0.576l-1.357-2.013
						c-0.459-0.667-0.902-1.338-1.321-2.025l-1.277-2.042c-0.439-0.672-0.857-1.359-1.385-2.001l0.083-0.115
						c0.796,0.331,1.486,0.87,2.103,1.445c0.616,0.583,1.181,1.211,1.68,1.882c0.512,0.662,0.96,1.366,1.355,2.098
						c0.397,0.733,0.783,1.46,1.111,2.238l-0.816-0.197c0.868-0.483,1.807-0.996,2.578-1.674c0.798-0.657,1.399-1.523,1.938-2.399
						c0.538-0.878,1.154-1.661,1.76-2.468c0.606-0.81,1.159-1.64,1.813-2.499L641.835,355.188z"/>
					<path style="fill:#F97068;" d="M636.313,379.571c-0.725,1.002-1.697,1.797-2.723,2.465c-1.04,0.648-2.143,1.196-3.327,1.503
						c-1.184,0.307-2.385,0.492-3.523,0.868c-1.152,0.344-2.26,0.805-3.439,1.176l-0.242,0.076l-0.258-0.257
						c-0.743-0.738-1.345-1.549-1.95-2.379c-0.587-0.837-1.148-1.704-1.564-2.652c-0.437-0.936-0.78-1.922-0.998-2.942
						c-0.203-1.022-0.268-2.088-0.08-3.105l0.142-0.001c0.237,0.988,0.577,1.896,0.956,2.786c0.374,0.893,0.849,1.739,1.298,2.595
						l1.443,2.538c0.489,0.844,1.043,1.669,1.56,2.486l-0.5-0.18c1.163-0.096,2.37-0.234,3.509-0.56
						c1.151-0.302,2.216-0.877,3.255-1.443c1.032-0.582,2.108-1.018,3.167-1.512c1.056-0.5,2.086-1.022,3.18-1.571L636.313,379.571z
						"/>
					<path style="fill:#F97068;" d="M628.176,401.334c-0.402,0.558-0.947,0.994-1.542,1.312c-0.598,0.309-1.238,0.563-1.907,0.628
						c-0.671,0.066-1.351-0.062-2-0.099c-0.655-0.048-1.281,0.003-1.961,0.047l-0.081,0.005l-0.146-0.137
						c-0.514-0.481-1.051-0.945-1.492-1.48c-0.452-0.526-0.918-1.043-1.32-1.607c-0.402-0.563-0.751-1.165-1.077-1.785
						c-0.325-0.62-0.61-1.27-0.826-1.97l0.115-0.085c0.604,0.415,1.14,0.88,1.635,1.375c0.495,0.495,0.966,1.008,1.384,1.56
						c0.419,0.551,0.773,1.15,1.141,1.738c0.379,0.58,0.662,1.231,0.968,1.865l-0.226-0.131c0.588,0.16,1.24,0.21,1.855,0.09
						c0.623-0.113,1.209-0.406,1.786-0.591c0.583-0.174,1.166-0.292,1.758-0.435c0.602-0.124,1.177-0.308,1.857-0.419
						L628.176,401.334z"/>
				</g>
			</g>
			<g>
				<path style="fill:#B4DFF9;" d="M635.15,448.942h-30.064c-1.759,0-3.255-1.285-3.52-3.024l-4.811-31.583
					c-0.328-2.155,1.34-4.096,3.52-4.096h39.686c2.18,0,3.848,1.941,3.52,4.096l-4.811,31.583
					C638.404,447.658,636.909,448.942,635.15,448.942z"/>
				<path style="fill:#A2D4F9;" d="M639.96,410.238h-6.138c2.18,0,3.848,1.941,3.52,4.096l-4.811,31.583
					c-0.265,1.739-1.76,3.024-3.52,3.024h6.138c1.759,0,3.255-1.285,3.52-3.024l4.811-31.583
					C643.808,412.18,642.14,410.238,639.96,410.238z"/>
			</g>
		</g>
		<g>
			<g>
				<g>
					<path style="fill:#F97068;" d="M187.812,359.388c0.159,1.287-0.11,2.584-0.735,3.721c-2.279,4.145-3.434,8.906-3.285,13.635
						c0.098,3.115,0.738,6.303-0.11,9.303c-1.463,5.175-6.925,8.375-8.683,13.458c-1.558,4.506-0.109,10.173-3.348,13.672
						c-0.803,0.867-2.049,1.531-3.146,1.092c-0.551-0.221-0.964-0.681-1.355-1.126c-3.713-4.217-7.688-9.342-6.543-14.842
						c1.076-5.167,6.401-8.659,7.41-13.84c0.825-4.233-1.339-9.117,1.086-12.683c0.669-0.984,1.627-1.736,2.358-2.675
						c2.884-3.704,1.816-9.607,5.139-12.922c1.084-1.081,2.44-1.694,3.918-2.01C184.004,353.424,187.375,355.852,187.812,359.388
						L187.812,359.388z"/>
				</g>
				<g>
					<path style="fill:#FFA6A4;" d="M166.697,425.046c-0.223-2.757-0.318-5.514-0.421-8.279c0.126-2.756,0.273-5.513,0.509-8.267
						c0.236-2.754,0.546-5.509,1.033-8.247c0.495-2.721,1.149-5.5,2.294-8.059c1.999-5.056,3.616-10.342,5.249-15.581l2.368-7.898
						c0.973-2.58,1.923-5.165,2.841-7.769c-0.402,2.739-1.029,5.429-1.579,8.137l-2.374,7.916
						c-1.643,5.265-3.244,10.519-5.293,15.701c-1.108,2.477-1.721,5.099-2.212,7.782c-0.477,2.68-0.783,5.401-1.017,8.129
						c-0.229,2.729-0.39,5.468-0.495,8.211L166.697,425.046z"/>
					<path style="fill:#FFA6A4;" d="M181.248,369.178c-0.454,0.688-1.04,1.204-1.669,1.66c-0.323,0.217-0.702,0.358-1.054,0.536
						c-0.357,0.171-0.669,0.401-0.959,0.663l-0.126,0.113l-0.112-0.171c-0.263-0.402-0.583-0.775-0.834-1.183
						c-0.243-0.412-0.498-0.817-0.714-1.242c-0.42-0.856-0.733-1.765-0.892-2.751l0.078-0.039c0.689,0.723,1.224,1.521,1.652,2.374
						c0.208,0.429,0.377,0.878,0.558,1.32c0.172,0.447,0.276,0.927,0.438,1.38l-0.237-0.057c0.335-0.199,0.648-0.429,0.916-0.719
						c0.273-0.283,0.519-0.603,0.821-0.847c0.621-0.466,1.285-0.872,2.081-1.105L181.248,369.178z"/>
					<path style="fill:#FFA6A4;" d="M180.579,378.601c-0.473,0.39-0.962,0.812-1.473,1.165c-0.511,0.362-1.03,0.71-1.591,0.991
						c-0.567,0.272-1.169,0.487-1.714,0.796c-0.548,0.303-1.048,0.685-1.537,1.082l-0.172,0.14l-0.174-0.228
						c-0.756-0.99-1.402-2.042-2.012-3.115c-0.574-1.093-1.086-2.221-1.453-3.431l0.076-0.043c0.847,0.939,1.549,1.959,2.189,3.015
						c0.604,1.076,1.172,2.173,1.63,3.331l-0.346-0.088c0.572-0.267,1.135-0.547,1.651-0.904c0.519-0.351,0.983-0.793,1.483-1.175
						c0.506-0.374,1.058-0.675,1.621-0.957c0.571-0.273,1.137-0.539,1.804-0.665L180.579,378.601z"/>
					<path style="fill:#FFA6A4;" d="M177.23,391.039c-0.519,0.523-1.098,0.908-1.695,1.256c-0.589,0.363-1.236,0.604-1.926,0.767
						c-0.687,0.167-1.31,0.47-1.865,0.894c-0.553,0.42-1.094,0.882-1.648,1.245l-0.418,0.274l-0.311-0.466
						c-0.458-0.686-0.874-1.396-1.197-2.156c-0.324-0.76-0.612-1.54-0.772-2.39l0.096-0.053c0.632,0.591,1.137,1.251,1.605,1.932
						c0.469,0.68,0.846,1.411,1.18,2.166l-0.729-0.192c0.632-0.349,1.304-0.549,1.969-0.782c0.664-0.228,1.271-0.557,1.817-1.013
						c0.544-0.462,1.139-0.826,1.794-1.066c0.648-0.252,1.319-0.456,2.053-0.517L177.23,391.039z"/>
				</g>
			</g>
			<g>
				<g>
					<path style="fill:#FFA6A4;" d="M162.312,425.585c-2.154-0.354-10.231-2.938-9.667-5.047c2.421-9.052,4.842-19.321-3.542-23.749
						c-4.035-2.131-9.099-3.213-11.396-7.155c-2.366-4.06-0.624-9.221,1.499-13.413c2.123-4.192,4.68-8.68,3.77-13.29
						c-0.953-4.828-5.518-8.391-6.249-13.257c-0.997-6.645,5.455-11.999,11.654-14.593c2.108-0.882,4.426-1.636,6.648-1.1
						c1.587,0.383,2.963,1.4,4.051,2.617c4.354,4.868,4.176,12.214,3.183,18.67c-0.994,6.455-2.514,13.273-0.083,19.335
						c1.727,4.306,5.424,8.356,4.434,12.888c-0.397,1.815-1.529,3.399-1.96,5.206c-1.164,4.873,2.884,9.262,4.739,13.915
						c2.394,6.004,0.751,13.341-3.787,17.896C164.743,425.375,163.519,425.784,162.312,425.585L162.312,425.585z"/>
				</g>
				<g>
					<path style="fill:#F97068;" d="M163.074,425.685c-0.499-3.583-0.998-7.154-1.637-10.698c-0.152-0.887-0.338-1.768-0.48-2.654
						c-0.135-0.887-0.214-1.782-0.361-2.667c-0.267-1.774-0.566-3.542-0.904-5.3c-0.684-3.511-1.502-7.007-2.702-10.332
						c-0.602-1.655-1.316-3.275-2.259-4.672c-0.468-0.696-1.021-1.313-1.633-1.729c-0.807-0.53-1.577-1.213-2.179-2.026
						c-1.242-1.646-1.617-3.737-1.572-5.622c0.042-1.91,0.403-3.733,0.807-5.514c0.83-3.555,1.875-6.989,2.456-10.486
						c0.59-3.479,0.705-7.043-0.214-10.38c-0.283-0.815-0.505-1.643-0.773-2.473c-0.274-0.826-0.629-1.629-1.03-2.414
						c-0.805-1.572-1.854-3.035-3.016-4.426c1.425,1.118,2.746,2.409,3.849,3.903c0.553,0.743,1.072,1.526,1.513,2.356
						c0.456,0.822,0.842,1.696,1.042,2.619c1.005,3.653,0.862,7.477,0.25,11.086c-0.605,3.628-1.668,7.114-2.475,10.582
						c-0.395,1.732-0.73,3.472-0.765,5.174c-0.036,1.695,0.292,3.35,1.25,4.616c0.474,0.636,1.068,1.174,1.767,1.634
						c0.883,0.602,1.537,1.372,2.077,2.165c1.076,1.598,1.817,3.312,2.45,5.04c1.25,3.466,2.077,7.02,2.772,10.585
						c0.344,1.784,0.645,3.574,0.916,5.367c0.124,0.898,0.291,1.79,0.4,2.69c0.092,0.902,0.132,1.81,0.189,2.715
						C163.007,418.448,163.141,422.067,163.074,425.685z"/>
					<path style="fill:#F97068;" d="M148.768,355.031c0.62,0.216,1.14,0.578,1.622,0.963c0.477,0.393,0.933,0.808,1.269,1.334
						c0.34,0.522,0.643,1.074,1.079,1.502c0.419,0.444,0.925,0.806,1.411,1.196l-0.639,0.04c0.215-0.464,0.481-0.898,0.725-1.343
						c0.251-0.441,0.503-0.88,0.801-1.288c0.28-0.419,0.599-0.815,0.903-1.217c0.306-0.403,0.652-0.775,0.929-1.203l0.108,0.018
						c0.024,0.564-0.147,1.088-0.319,1.582c-0.189,0.491-0.4,0.968-0.655,1.418c-0.238,0.46-0.54,0.878-0.845,1.293
						c-0.314,0.409-0.615,0.823-0.976,1.202l-0.4,0.42l-0.239-0.38c-0.327-0.519-0.642-1.058-1.05-1.509
						c-0.391-0.468-0.922-0.804-1.424-1.163c-0.505-0.356-0.904-0.81-1.294-1.272c-0.388-0.468-0.749-0.951-1.074-1.505
						L148.768,355.031z"/>
					<path style="fill:#F97068;" d="M156.598,368.737c-0.256,0.616-0.591,1.178-0.965,1.706c-0.381,0.521-0.778,1.029-1.234,1.481
						c-0.466,0.443-1,0.822-1.5,1.231c-0.49,0.418-0.922,0.888-1.314,1.401l-0.125,0.163l-0.177-0.141
						c-0.652-0.519-1.17-0.993-1.684-1.545c-0.487-0.556-1.005-1.083-1.458-1.661c-0.457-0.575-0.883-1.172-1.288-1.786
						c-0.409-0.611-0.776-1.251-1.202-1.848l0.062-0.091c0.715,0.338,1.272,0.861,1.824,1.36c0.544,0.513,1.048,1.057,1.515,1.628
						c0.472,0.567,0.873,1.19,1.311,1.78c0.428,0.577,0.789,1.294,1.195,1.801l-0.301,0.023c0.496-0.407,0.943-0.865,1.327-1.379
						c0.375-0.524,0.711-1.081,1.105-1.583c0.404-0.493,0.864-0.934,1.321-1.378c0.466-0.437,0.96-0.847,1.501-1.231
						L156.598,368.737z"/>
					<path style="fill:#F97068;" d="M142.195,379.317c0.68,0.799,1.385,1.534,2.106,2.236c0.723,0.705,1.5,1.32,2.255,1.997
						c0.771,0.655,1.644,1.241,2.633,1.529c0.981,0.309,2.022,0.348,3.026,0.337l-0.449,0.316c0.177-0.846,0.44-1.643,0.717-2.449
						c0.272-0.805,0.62-1.587,1.041-2.334c0.416-0.749,0.91-1.463,1.492-2.109c0.592-0.629,1.278-1.219,2.097-1.512l0.055,0.095
						c-0.62,0.562-1.098,1.21-1.513,1.902c-0.422,0.686-0.78,1.411-1.131,2.141l-1.008,2.225c-0.331,0.746-0.623,1.522-0.913,2.276
						l-0.14,0.365l-0.309-0.048c-1.069-0.167-2.083-0.529-3.074-0.878c-0.979-0.382-1.986-0.718-2.949-1.21
						c-0.974-0.476-1.793-1.215-2.48-2.037c-0.686-0.824-1.246-1.761-1.552-2.793L142.195,379.317z"/>
					<path style="fill:#F97068;" d="M161.672,387.414c0.33,0.793,0.443,1.657,0.421,2.513c-0.036,0.854-0.171,1.716-0.47,2.522
						c-0.315,0.8-0.776,1.535-1.293,2.201l-1.507,2.003l-0.107,0.143l-0.174-0.124c-0.815-0.579-1.743-1.019-2.628-1.48
						c-0.883-0.475-1.798-0.879-2.714-1.269c-0.915-0.394-1.828-0.794-2.768-1.146c-0.932-0.382-1.891-0.687-2.864-1.053
						l0.016-0.108c2.077-0.045,4.175,0.396,6.085,1.237c0.958,0.418,1.859,0.954,2.731,1.521c0.869,0.581,1.644,1.278,2.403,1.998
						l-0.281,0.019c0.558-0.588,1.067-1.238,1.391-1.986c0.362-0.729,0.54-1.523,0.788-2.266c0.482-1.5,0.788-3.044,0.864-4.697
						L161.672,387.414z"/>
				</g>
			</g>
			<g>
				<g>
					<path style="fill:#B4DFF9;" d="M176.956,448.942H153.9c-2.14,0-3.959-1.85-4.281-4.354l-3.65-28.362
						c-0.399-3.103,1.63-5.898,4.281-5.898h30.356c2.652,0,4.681,2.795,4.281,5.898l-3.65,28.362
						C180.915,447.092,179.096,448.942,176.956,448.942z"/>
				</g>
				<path style="fill:#A2D4F9;" d="M180.606,410.329h-5.021c2.652,0,4.681,2.795,4.281,5.898l-3.65,28.362
					c-0.322,2.504-2.141,4.354-4.281,4.354h5.021c2.14,0,3.959-1.85,4.281-4.354l3.65-28.362
					C185.286,413.124,183.257,410.329,180.606,410.329z"/>
			</g>
		</g>
	</g>
	<g>
		<g>
			<path style="fill:#A2D4F9;" d="M113.454,299.641h-69.65c-3.783,0-6.849-3.067-6.849-6.849v-36.221
				c0-3.783,3.067-6.849,6.849-6.849h69.65c3.783,0,6.849,3.066,6.849,6.849v36.221
				C120.303,296.574,117.237,299.641,113.454,299.641z"/>
			<path style="fill:#B4DFF9;" d="M115.807,299.641H41.451c-2.483,0-4.496-2.013-4.496-4.496l41.674-27.662l41.674,27.662
				C120.303,297.628,118.29,299.641,115.807,299.641z"/>
			<path style="fill:#FAFDFF;" d="M115.807,249.721H41.451c-2.483,0-4.496,2.013-4.496,4.496l41.674,27.662l41.674-27.662
				C120.303,251.734,118.29,249.721,115.807,249.721z"/>
		</g>
		<g>
			<path style="fill:#A2D4F9;" d="M611.4,68.671H445.07c-5.182,0-9.382,4.201-9.382,9.382v38.902c0,5.182,4.201,9.382,9.382,9.382
				h16.707l-5.695,14.054l18.932-14.054H611.4c5.182,0,9.382-4.201,9.382-9.382V78.053C620.782,72.872,616.582,68.671,611.4,68.671z
				"/>
			<path style="fill:#FFFFFF;" d="M600.42,89.851H473.656c-1.21,0-2.192-0.981-2.192-2.192c0-1.21,0.981-2.192,2.192-2.192H600.42
				c1.21,0,2.192,0.981,2.192,2.192C602.612,88.869,601.631,89.851,600.42,89.851z M602.612,97.504c0-1.21-0.981-2.192-2.192-2.192
				h-144.37c-1.21,0-2.192,0.981-2.192,2.192c0,1.21,0.981,2.192,2.192,2.192h144.37C601.631,99.696,602.612,98.715,602.612,97.504z
				 M539.23,107.35c0-1.21-0.981-2.192-2.192-2.192h-80.987c-1.21,0-2.192,0.981-2.192,2.192c0,1.21,0.981,2.192,2.192,2.192h80.987
				C538.248,109.541,539.23,108.56,539.23,107.35z"/>
		</g>
		<path style="fill:#A2D4F9;" d="M645.601,242.029c-6.464,6.464-7.44,16.315-2.971,23.827l-32.891,32.891
			c-0.674,0.673-0.674,1.766,0,2.439l4.387,4.387c0.673,0.673,1.766,0.673,2.439,0l2.336-2.336l6.077,6.077
			c0.674,0.673,1.766,0.674,2.439,0l3.593-3.593c0.674-0.673,0.674-1.766,0-2.439l-6.077-6.077l3.147-3.147l5.192,5.192
			c0.674,0.673,1.766,0.673,2.439,0l3.593-3.593c0.674-0.673,0.674-1.766,0-2.439l-5.192-5.192l15.344-15.343
			c7.513,4.468,17.363,3.493,23.827-2.971c7.644-7.644,7.644-20.038,0-27.682C665.639,234.385,653.245,234.385,645.601,242.029z
			 M667.155,263.584c-4.26,4.26-11.166,4.26-15.426,0c-4.26-4.26-4.26-11.166,0-15.426c4.26-4.26,11.166-4.26,15.426,0
			C671.415,252.417,671.415,259.324,667.155,263.584z"/>
		<g>
			<path style="fill:#FFFFFF;" d="M95.126,360.28c-0.543-1.546-0.933-3.056-1.176-4.526c-0.243-1.47-0.132-2.989,0.349-4.569
				c0.476-1.574,1.509-3.207,3.096-4.905c0.482-0.525,1.182-1.252,2.101-2.175c0.92-0.923,1.816-1.953,2.687-3.099
				c0.872-1.143,1.539-2.322,1.989-3.528c0.456-1.208,0.492-2.372,0.098-3.492c-0.28-0.798-0.76-1.425-1.436-1.872
				c-0.677-0.451-1.434-0.71-2.272-0.775c-0.844-0.063-1.698,0.056-2.562,0.36c-1.292,0.454-2.249,1.142-2.869,2.056
				s-1.05,1.858-1.283,2.817c-0.238,0.965-0.481,1.791-0.72,2.482l-12.249-3.522c0.139-2.533,0.777-4.868,1.91-6.995
				c1.127-2.125,2.667-3.999,4.614-5.624c1.947-1.625,4.218-2.893,6.808-3.803c2.056-0.723,4.223-1.151,6.506-1.294
				c2.29-0.142,4.517,0.127,6.702,0.803c2.178,0.678,4.161,1.873,5.943,3.594c1.789,1.719,3.209,4.074,4.262,7.069
				c0.452,1.285,0.779,2.555,0.975,3.808c0.196,1.253,0.224,2.491,0.077,3.716c-0.147,1.225-0.472,2.45-0.98,3.68
				c-0.508,1.23-1.217,2.457-2.121,3.678c-1.192,1.622-2.474,3.095-3.859,4.422c-1.384,1.33-2.507,2.58-3.368,3.753
				c-0.86,1.176-1.083,2.354-0.67,3.53L95.126,360.28z M100.535,374.892l-0.255-0.725c-1.218-3.467,0.604-7.265,4.071-8.484l0,0
				c3.467-1.219,7.265,0.604,8.484,4.071l0.255,0.725c1.218,3.467-0.604,7.265-4.071,8.484h0
				C105.552,380.182,101.754,378.359,100.535,374.892z"/>
		</g>
	</g>
</g>
</svg>
